{"title":"Big Game(2014)MPEG-4(720p)[DaScubaDude]","uid":13219886,"size":858525825,"categoryP":"video","categoryS":"movies","magnet":"?xt=urn:btih:6ca8b9a18edd5b03abffc2411995695b6f6ca978&amp;dn=Big+Game%282014%29MPEG-4%28720p%29%5BDaScubaDude%5D&amp;tr=udp%3A%2F%2Ftracker.leechers-paradise.org%3A6969&amp;tr=udp%3A%2F%2Fzer0day.ch%3A1337&amp;tr=udp%3A%2F%2Fopen.demonii.com%3A1337&amp;tr=udp%3A%2F%2Ftracker.coppersurfer.tk%3A6969&amp;tr=udp%3A%2F%2Fexodus.desync.com%3A6969","seeders":0,"leechers":0,"uploader":"dascuba","files":1,"time":1452744322,"description":"Big Game (2014)\r\nPG-13  |  110 min  |  Action, Adventure  |  26 June 2015 (USA)\r\n5.5 Your rating:   -/10   Ratings: 5.5/10 from 16,659 users   Metascore: 53/100 \r\nReviews: 82 user | 143 critic | 18 from Metacritic.com\r\nA young teenager camping in the woods helps rescue the President of the United States when Air Force One is shot down near his campsite.\r\n\r\nDirector: Jalmari Helander\r\nWriters: Jalmari Helander (screenplay), Jalmari Helander (based on the original story by), 1 more credit »\r\nStars: Samuel L. Jackson, Onni Tommila, Ray Stevenson |\r\n\r\nGeneral\r\nComplete name                            :Big GameBIG_GAME_Title1.mp4\r\nFormat                                   : MPEG-4\r\nFormat profile                           : Base Media\r\nCodec ID                                 : isom\r\nFile size                                : 819 MiB\r\nDuration                                 : 1h 26mn\r\nOverall bit rate                         : 1 320 Kbps\r\nMovie name                               : BIG_GAME\r\nGenre                                    : Action\r\nWriting application                      : Lavf54.6.100\r\n\r\nVideo\r\nID                                       : 1\r\nFormat                                   : AVC\r\nFormat/Info                              : Advanced Video Codec\r\nFormat profile                           :   \r\nFormat settings, CABAC                   : No\r\nFormat settings, ReFrames                : 6 frames\r\nCodec ID                                 : avc1\r\nCodec ID/Info                            : Advanced Video Coding\r\nDuration                                 : 1h 26mn\r\nBit rate                                 : 1 185 Kbps\r\nWidth                                    : 720 pixels\r\nHeight                                   : 404 pixels\r\nDisplay aspect ratio                     : 16:9\r\nFrame rate mode                          : Constant\r\nFrame rate                               : 29.970 fps\r\nColor space                              : YUV\r\nChroma subsampling                       : 4:2:0\r\nBit depth                                : 8 bits\r\nScan type                                : Progressive\r\nBits/(Pixel*Frame)                       : 0.136\r\nStream size                              : 735 MiB (90%)\r\n\r\nAudio\r\nID                                       : 2\r\nFormat                                   : AAC\r\nFormat/Info                              : Advanced Audio Codec\r\nFormat profile                           : LC\r\nCodec ID                                 : 40\r\nDuration                                 : 1h 26mn\r\nBit rate mode                            : Constant\r\nBit rate                                 : 128 Kbps\r\nChannel(s)                               : 2 channels\r\nChannel positions                        : Front: L R\r\nSampling rate                            : 44.1 KHz\r\nCompression mode                         : Lossy\r\nStream size                              : 79.4 MiB (10%)","torrent":{"xt":"urn:btih:6ca8b9a18edd5b03abffc2411995695b6f6ca978","amp;dn":"Big+Game%282014%29MPEG-4%28720p%29%5BDaScubaDude%5D","amp;tr":["udp%3A%2F%2Ftracker.leechers-paradise.org%3A6969","udp%3A%2F%2Fzer0day.ch%3A1337","udp%3A%2F%2Fopen.demonii.com%3A1337","udp%3A%2F%2Ftracker.coppersurfer.tk%3A6969","udp%3A%2F%2Fexodus.desync.com%3A6969"],"infoHash":"6ca8b9a18edd5b03abffc2411995695b6f6ca978","infoHashBuffer":{"type":"Buffer","data":[108,168,185,161,142,221,91,3,171,255,194,65,25,149,105,91,111,108,169,120]},"announce":[],"urlList":[]}}